<svg xmlns="http://www.w3.org/2000/svg" width="368pt" height="368pt" viewBox="0 0 368 368"><path d="M344 0H24C10.77 0 0 10.77 0 24v320c0 13.23 10.77 24 24 24h320c13.23 0 24-10.77 24-24V24c0-13.23-10.77-24-24-24zm8 344c0 4.414-3.594 8-8 8H24c-4.406 0-8-3.586-8-8V24c0-4.406 3.594-8 8-8h320c4.406 0 8 3.594 8 8zm0 0"/><path d="M216 64H104c-4.414 0-8 3.586-8 8v224c0 4.426 3.586 8 8 8h112c30.879 0 56-25.129 56-56v-16c0-20.344-10.902-38.191-27.176-48C261.098 174.191 272 156.344 272 136v-16c0-30.879-25.121-56-56-56zm40 168v16c0 22.055-17.945 40-40 40H112v-96h104c22.055 0 40 17.945 40 40zm0-96c0 22.055-17.945 40-40 40H112V80h104c22.055 0 40 17.945 40 40zm0 0"/></svg>