<svg xmlns="http://www.w3.org/2000/svg" viewBox="0 0 896 1037.3"><path fill="#FFF" d="M832 721.8V320c0-192.5-192-192-192-192h-64V0L384 192l192 192V256h64c56.4 0 64 64 64 64v401.8c-38.1 22.2-64 62.9-64 110.3 0 70.6 57.4 128 128 128s128-57.4 128-128c0-47.3-25.9-88.2-64-110.3zM768 896c-35.3 0-64-28.6-64-64 0-35.3 28.7-64 64-64 35.4 0 64 28.7 64 64 0 35.4-28.6 64-64 64zM64 315.6v401.7c0 192.5 192 192 192 192h64v128l192-192-192-192v128h-64c-56.4 0-64-64-64-64V315.6c38.2-22.2 64-62.9 64-110.3 0-70.7-57.3-128-128-128S0 134.7 0 205.3c0 47.3 25.8 88.1 64 110.3zm64-43.6c-35.3 0-64-28.6-64-64 0-35.3 28.7-64 64-64 35.4 0 64 28.7 64 64 0 35.4-28.6 64-64 64z"/></svg>