<svg xmlns="http://www.w3.org/2000/svg" viewBox="1.9 61.5 506.4 385.6"><path fill="#FFF" d="M112.2 67.6h84.2v236c0 106.4-51 143.5-132.4 143.5-19.9 0-45.4-3.3-62.1-8.9l9.4-68.1c11.6 3.9 26.6 6.6 43.2 6.6 35.5 0 57.6-16.1 57.6-73.7V67.6zm157.3 287c22.2 11.6 57.6 23.3 93.6 23.3 38.8 0 59.3-16.1 59.3-41 0-22.7-17.7-36.6-62.6-52.1-62.1-22.2-103-56.5-103-111.4 0-63.7 53.7-111.9 141.3-111.9 42.7 0 73.1 8.3 95.3 18.8L474.5 148c-14.4-7.2-41.6-17.7-77.6-17.7-36.6 0-54.3 17.2-54.3 36 0 23.8 20.5 34.3 69.3 53.2 65.9 24.4 96.4 58.7 96.4 111.9 0 62.6-47.6 115.8-150.1 115.8-42.7 0-84.8-11.6-105.8-23.3l17.1-69.3z"/></svg>