<svg xmlns="http://www.w3.org/2000/svg" width="585.918" height="585.918" viewBox="0 0 585.918 585.918"><path d="M75.444 263.045c-4.659.087-7.798.617-9.459 1.14v32.322c1.95.483 4.349.642 7.653.642 12.252-.011 19.884-6.772 19.884-18.121 0-10.212-6.564-16.182-18.078-15.983z"/><path d="M357.4 535.325c.767.052 1.543.114 2.33.114h177.39c20.745 0 37.627-16.883 37.627-37.627V86.597c0-20.743-16.882-37.628-37.627-37.628H359.73c-.782 0-1.563.07-2.33.113V0L11.17 46.206v492.311l346.23 47.401v-50.593zm2.33-464.849h177.39c8.892 0 16.125 7.236 16.125 16.126v411.22c0 8.893-7.233 16.127-16.125 16.127H359.73c-.792 0-1.563-.127-2.33-.243V369.684l128.642 24.61c1.786.341 3.885.021 4.703-.72l58.363-53.407s3.801-2.283-1.616-3.312c-1.292-.247-10.642-2.044-24.062-4.62l-26.715 24.419c-3.02 2.773-7.051 3.182-9.188 3.182-1.044 0-2.125-.1-3.158-.299l-123.657-23.648-3.316 3.028v-15.223l124.195 23.759c1.784.341 3.9.026 4.692-.714l58.374-53.413s3.801-2.288-1.605-3.318c-1.293-.249-10.647-2.044-24.063-4.624l-26.714 24.43c-3.03 2.768-7.062 3.176-9.188 3.176-1.055 0-2.138-.1-3.161-.289l-122.541-23.446v-11.688l124.206 23.759c1.773.335 3.9.021 4.692-.72l58.363-53.416s3.802-2.279-1.595-3.31c-5.407-1.028-151.972-29.231-151.972-29.231-1.795-.344-3.905-.023-4.692.709l-29.003 26.538V70.707c.783-.113 1.549-.231 2.346-.231zm111.489 194.176c-13.806-1.053-33.051 9.698-33.051 9.698s8.393-14.68-1.197-25.239c-9.606-10.557-57.019 14.105-57.019 14.105l-22.546-4.315v-.651l38.629-35.339 132.822 25.41-39.234 35.867-9.682-1.856c.873-7.064 3.068-16.767-8.722-17.68zm-363.953 40.077c-8.052 8.063-19.85 11.601-33.483 11.496-3.002-.022-5.713-.21-7.797-.547v39.146l-22.321-.584V247.354c6.897-1.461 16.665-2.682 30.575-3.036 14.247-.367 24.53 2.331 31.476 8.121 6.674 5.494 11.223 14.725 11.223 25.701-.001 10.976-3.447 20.289-9.673 26.589zm51.496 54.195c-12.448-.337-24.608-4.012-30.632-7.682l4.914-20.991c6.541 3.621 16.662 7.323 27.202 7.501 11.458.199 17.558-4.656 17.558-12.183 0-7.183-5.268-11.314-18.528-16.327-18.09-6.63-29.709-17.018-29.709-33.416 0-19.233 15.318-34.364 41.153-35.042 12.567-.334 21.932 2.179 28.651 5.113l-5.719 21.318c-4.527-2.171-12.525-5.3-23.41-5.113-10.806.173-16.014 5.333-16.014 11.257 0 7.279 6.192 10.444 20.452 15.982 19.814 7.485 29.25 18.2 29.25 34.63-.015 19.55-14.645 35.756-45.168 34.953zm149.177-12.307c-13.104 10.364-32.713 14.878-56.262 14.242-13.858-.361-23.594-1.485-30.15-2.535V242.939c9.669-1.815 22.405-3.026 35.998-3.375 22.932-.591 38.048 3.155 50.037 11.73 13.04 9.191 21.313 24.205 21.313 45.921 0 7.007-.856 13.281-2.279 19.009-.263.251-.294.508-.2.767-3.42 13.097-10.12 22.908-18.457 29.626z"/><path d="M260.371 260.233c-6.048.108-9.924.704-12.221 1.269v77.756c2.302.573 6.005.642 9.376.698 24.748.604 41.188-12.803 41.188-41.811.176-25.231-14.805-38.315-38.343-37.912zm232.602-5.175c7.978 1.521 16.21 1.156 18.382-.834 2.173-1.99-2.54-4.833-10.519-6.36a53.614 53.614 0 0 0-8.757-.939c-.535-.554-1.542-1.031-2.971-1.308l-2.101-.396c-2.678-.517-5.716-.087-7.181.935-6.783-.963-12.646-.914-13.891.242-1.512 1.375 4.032 3.779 12.369 5.375 2.436.472 4.829.795 7.043 1.016 1.913.87 4.497 1.665 7.626 2.269z"/></svg>