<svg xmlns="http://www.w3.org/2000/svg" viewBox="26 26 460 460"><path d="M256 26C129.2 26 26 129.1 26 256c0 126.8 103.2 230 230 230s230-103.2 230-230c0-126.9-103.2-230-230-230zM49.2 256c0-30 6.4-58.4 17.9-84.1l98.7 270.2C96.8 408.6 49.2 337.8 49.2 256zM256 462.8c-19.8 0-39.5-2.8-58.4-8.4l62-180.3 63.5 174.2c.4 1 .9 1.9 1.5 2.9-22 7.7-45.2 11.6-68.6 11.6zm28.5-303.7c12.4-.6 23.6-1.9 23.6-1.9 11.1-1.3 9.8-17.7-1.3-17.1 0 0-33.5 2.6-55.1 2.6-20.3 0-54.4-2.6-54.4-2.6-11.1-.6-12.4 16.4-1.3 17.1 0 0 10.6 1.3 21.7 1.9l32.2 88.3-45.3 135.7-75.3-224c12.4-.6 23.6-1.9 23.6-1.9 11.1-1.3 9.8-17.7-1.3-17.1 0 0-33.5 2.6-55.1 2.6-3.9 0-8.4-.1-13.4-.3 37-56.1 100.5-93.2 172.8-93.2 53.8 0 102.8 20.6 139.7 54.3-.9-.1-1.8-.2-2.7-.2-20.3 0-34.7 17.7-34.7 36.7 0 17.1 9.8 31.4 20.3 48.5 7.9 13.7 17.1 31.4 17.1 57 0 17.7-6.8 38.2-15.8 66.9l-20.6 68.9-74.7-222.2zM360 434.7l63.2-182.6c11.8-29.5 15.8-53 15.8-74.1 0-7.6-.5-14.7-1.4-21.2 16.1 29.5 25.3 63.3 25.3 99.2-.1 76.3-41.4 142.9-102.9 178.7z"/></svg>